<svg xmlns="http://www.w3.org/2000/svg" viewBox="0 0 64 64">
  <defs>
    <!-- Primary blue for dark segments -->
    <linearGradient id="blueGrad" x1="0%" y1="0%" x2="100%" y2="100%">
      <stop offset="0%" style="stop-color:oklch(0.5 0.15 220);stop-opacity:1" />
      <stop offset="100%" style="stop-color:oklch(0.4 0.15 220);stop-opacity:1" />
    </linearGradient>
  </defs>
  
  <!-- Background circle (light gray/cream) -->
  <circle cx="32" cy="32" r="30" fill="oklch(0.97 0.002 250)"/>
  
  <!-- Dark segments (blue) - 10 segments at: 0°, 36°, 72°, 108°, 144°, 180°, 216°, 252°, 288°, 324° -->
  <g id="darkSegments">
    <!-- Segment at 0° -->
    <path d="M 32 32 L 62.00 32.00 A 30 30 0 0 1 60.53 22.73 Z" fill="url(#blueGrad)"/>
    <!-- Segment at 36° -->
    <path d="M 32 32 L 56.27 14.37 A 30 30 0 0 1 49.63 7.73 Z" fill="url(#blueGrad)"/>
    <!-- Segment at 72° -->
    <path d="M 32 32 L 41.27 3.47 A 30 30 0 0 1 32.00 2.00 Z" fill="url(#blueGrad)"/>
    <!-- Segment at 108° -->
    <path d="M 32 32 L 22.73 3.47 A 30 30 0 0 1 14.37 7.73 Z" fill="url(#blueGrad)"/>
    <!-- Segment at 144° -->
    <path d="M 32 32 L 7.73 14.37 A 30 30 0 0 1 3.47 22.73 Z" fill="url(#blueGrad)"/>
    <!-- Segment at 180° -->
    <path d="M 32 32 L 2.00 32.00 A 30 30 0 0 1 3.47 41.27 Z" fill="url(#blueGrad)"/>
    <!-- Segment at 216° -->
    <path d="M 32 32 L 7.73 49.63 A 30 30 0 0 1 14.37 56.27 Z" fill="url(#blueGrad)"/>
    <!-- Segment at 252° -->
    <path d="M 32 32 L 22.73 60.53 A 30 30 0 0 1 32.00 62.00 Z" fill="url(#blueGrad)"/>
    <!-- Segment at 288° -->
    <path d="M 32 32 L 41.27 60.53 A 30 30 0 0 1 49.63 56.27 Z" fill="url(#blueGrad)"/>
    <!-- Segment at 324° -->
    <path d="M 32 32 L 56.27 49.63 A 30 30 0 0 1 60.53 41.27 Z" fill="url(#blueGrad)"/>
  </g>
  
  <!-- Double ring (orange) - outer scoring ring between r=27 and r=25 -->
  <!-- Draw as complete rings with orange color -->
  <circle cx="32" cy="32" r="27" fill="none" stroke="oklch(0.65 0.18 45)" stroke-width="2"/>
  <circle cx="32" cy="32" r="25" fill="none" stroke="oklch(0.65 0.18 45)" stroke-width="2"/>
  
  <!-- Triple ring (green) - inner scoring ring between r=19 and r=17 -->
  <circle cx="32" cy="32" r="19" fill="none" stroke="oklch(0.55 0.15 150)" stroke-width="2"/>
  <circle cx="32" cy="32" r="17" fill="none" stroke="oklch(0.55 0.15 150)" stroke-width="2"/>
  
  <!-- Outer bull (green) -->
  <circle cx="32" cy="32" r="8" fill="oklch(0.55 0.15 150)"/>
  
  <!-- Inner bull (orange/red) -->
  <circle cx="32" cy="32" r="4" fill="oklch(0.65 0.18 45)"/>
  
  <!-- Radial divider lines (20 segments, every 18 degrees) -->
  <g stroke="oklch(0.92 0.005 250)" stroke-width="0.8" opacity="0.6">
    <line x1="32" y1="2" x2="32" y2="30" transform="rotate(0 32 32)"/>
    <line x1="32" y1="2" x2="32" y2="30" transform="rotate(18 32 32)"/>
    <line x1="32" y1="2" x2="32" y2="30" transform="rotate(36 32 32)"/>
    <line x1="32" y1="2" x2="32" y2="30" transform="rotate(54 32 32)"/>
    <line x1="32" y1="2" x2="32" y2="30" transform="rotate(72 32 32)"/>
    <line x1="32" y1="2" x2="32" y2="30" transform="rotate(90 32 32)"/>
    <line x1="32" y1="2" x2="32" y2="30" transform="rotate(108 32 32)"/>
    <line x1="32" y1="2" x2="32" y2="30" transform="rotate(126 32 32)"/>
    <line x1="32" y1="2" x2="32" y2="30" transform="rotate(144 32 32)"/>
    <line x1="32" y1="2" x2="32" y2="30" transform="rotate(162 32 32)"/>
    <line x1="32" y1="2" x2="32" y2="30" transform="rotate(180 32 32)"/>
    <line x1="32" y1="2" x2="32" y2="30" transform="rotate(198 32 32)"/>
    <line x1="32" y1="2" x2="32" y2="30" transform="rotate(216 32 32)"/>
    <line x1="32" y1="2" x2="32" y2="30" transform="rotate(234 32 32)"/>
    <line x1="32" y1="2" x2="32" y2="30" transform="rotate(252 32 32)"/>
    <line x1="32" y1="2" x2="32" y2="30" transform="rotate(270 32 32)"/>
    <line x1="32" y1="2" x2="32" y2="30" transform="rotate(288 32 32)"/>
    <line x1="32" y1="2" x2="32" y2="30" transform="rotate(306 32 32)"/>
    <line x1="32" y1="2" x2="32" y2="30" transform="rotate(324 32 32)"/>
    <line x1="32" y1="2" x2="32" y2="30" transform="rotate(342 32 32)"/>
  </g>
</svg>
